<svg width="494" height="327" viewBox="0 0 494 327" fill="none" xmlns="http://www.w3.org/2000/svg">
<path d="M36 70C36 31.3401 67.3401 0 106 0H424C462.66 0 494 31.3401 494 70V257C494 295.66 462.66 327 424 327H106C67.3401 327 36 295.66 36 257V70Z" fill="#00AD98"/>
<ellipse cx="153.5" cy="66.0659" rx="27.0516" ry="28.135" transform="rotate(-0.920305 153.5 66.0659)" fill="#111010"/>
<ellipse cx="322" cy="105.5" rx="42" ry="37" fill="#101010"/>
<circle cx="265" cy="258.5" r="50" fill="#161515"/>
<ellipse cx="109" cy="120.5" rx="20" ry="17.5" fill="#F7ECEC"/>
<ellipse cx="140" cy="220.5" rx="36" ry="31.5" fill="white"/>
<ellipse cx="204.5" cy="142.5" rx="24.5" ry="22" fill="#FDFAFA"/>
<path d="M379.5 211.5C379.5 226.136 364.949 238 347 238C329.051 238 314.5 226.136 314.5 211.5C314.5 196.864 329.051 185 347 185C364.949 185 379.5 196.864 379.5 211.5Z" fill="#FFF8F8"/>
<path d="M40.1205 238.061C43.8552 230.879 54.13 230.879 57.8647 238.061L96.3857 312.136C99.8476 318.793 95.0171 326.75 87.5137 326.75H10.4715C2.96813 326.75 -1.86236 318.793 1.59949 312.136L40.1205 238.061Z" fill="#00AD98"/>
</svg>